<svg width="16" height="20" viewBox="0 0 16 20" fill="none" xmlns="http://www.w3.org/2000/svg">
<path fill-rule="evenodd" clip-rule="evenodd" d="M3.37584 2.85915C4.65549 1.61971 6.19686 1 8 1C9.80314 1 11.3372 1.61267 12.6023 2.83803C13.8675 4.06339 14.5 5.54929 14.5 7.29577C14.5 8.16902 14.2746 9.16901 13.8238 10.2958C13.373 11.4225 12.8277 12.4789 12.1879 13.4648C11.5481 14.4507 10.9156 15.3732 10.2903 16.2324C9.66499 17.0916 9.13423 17.7746 8.69799 18.2817L8 19C7.8255 18.8028 7.59284 18.5423 7.30201 18.2183C7.01118 17.8944 6.4877 17.2465 5.73154 16.2746C4.97539 15.3028 4.31376 14.3592 3.74664 13.4437C3.17953 12.5282 2.66331 11.493 2.19799 10.338C1.73266 9.18309 1.5 8.16902 1.5 7.29577C1.5 5.54929 2.12527 4.07043 3.37584 2.85915Z" stroke="#92A1A8" stroke-width="1.5" stroke-linecap="round" stroke-linejoin="round"/>
<path d="M9 7.5C9 8.05228 8.55228 8.5 8 8.5C7.44772 8.5 7 8.05228 7 7.5C7 6.94772 7.44772 6.5 8 6.5C8.55228 6.5 9 6.94772 9 7.5Z" stroke="#92A1A8" stroke-width="1.5" stroke-linecap="round" stroke-linejoin="round"/>
</svg>
