<svg width="19" height="18" viewBox="0 0 19 18" fill="none" xmlns="http://www.w3.org/2000/svg">
<path d="M12.7441 13.4211C12.5876 13.7477 12.5 14.1136 12.5 14.5C12.5 15.8807 13.6193 17 15 17C16.3807 17 17.5 15.8807 17.5 14.5C17.5 13.1193 16.3807 12 15 12C14.0057 12 13.1469 12.5805 12.7441 13.4211ZM12.7441 13.4211L5.75586 10.0789M12.7441 4.57889C13.1469 5.41949 14.0057 6 15 6C16.3807 6 17.5 4.88071 17.5 3.5C17.5 2.11929 16.3807 1 15 1C13.6193 1 12.5 2.11929 12.5 3.5C12.5 3.88637 12.5876 4.25226 12.7441 4.57889ZM12.7441 4.57889L5.75586 7.92111M5.75586 7.92111C5.35311 7.08051 4.49435 6.5 3.5 6.5C2.11929 6.5 1 7.61929 1 9C1 10.3807 2.11929 11.5 3.5 11.5C4.49435 11.5 5.35311 10.9195 5.75586 10.0789M5.75586 7.92111C5.91235 8.24774 6 8.61363 6 9C6 9.38637 5.91235 9.75226 5.75586 10.0789" stroke="#1D1D1F" stroke-width="1.5" stroke-linecap="round" stroke-linejoin="round"/>
</svg>
