<svg width="32" height="32" viewBox="0 0 32 32" fill="none" xmlns="http://www.w3.org/2000/svg">
<g clip-path="url(#clip0_352_14869)">
<path d="M16 13.0908V19.2872H24.6109C24.2328 21.2799 23.0981 22.9673 21.3963 24.1018L26.589 28.1309C29.6144 25.3383 31.3599 21.2364 31.3599 16.3637C31.3599 15.2292 31.2581 14.1382 31.069 13.091L16 13.0908Z" fill="#4285F4"/>
<path d="M7.03347 19.0454L5.86232 19.9419L1.7168 23.171C4.34952 28.3927 9.74548 32.0001 16 32.0001C20.3199 32.0001 23.9416 30.5746 26.589 28.131L21.3963 24.1019C19.9708 25.0619 18.1526 25.6438 16 25.6438C11.84 25.6438 8.30556 22.8365 7.04001 19.0546L7.03347 19.0454Z" fill="#34A853"/>
<path d="M1.71624 8.8291C0.625389 10.9817 0 13.4109 0 15.9999C0 18.589 0.625389 21.0181 1.71624 23.1707C1.71624 23.1852 7.03997 19.0398 7.03997 19.0398C6.71997 18.0798 6.53082 17.0617 6.53082 15.9997C6.53082 14.9378 6.71997 13.9197 7.03997 12.9597L1.71624 8.8291Z" fill="#FBBC05"/>
<path d="M16.0003 6.3709C18.3567 6.3709 20.4512 7.18543 22.1239 8.75636L26.7057 4.1746C23.9275 1.58555 20.3204 0 16.0003 0C9.74581 0 4.34952 3.59272 1.7168 8.8291L7.04036 12.96C8.30574 9.17816 11.8403 6.3709 16.0003 6.3709Z" fill="#EA4335"/>
</g>
<defs>
<clipPath id="clip0_352_14869">
<rect width="32" height="32" fill="white"/>
</clipPath>
</defs>
</svg>
