<svg width="24" height="25" viewBox="0 0 24 25" fill="none" xmlns="http://www.w3.org/2000/svg">
<path d="M9.65324 5.01926C9.85659 4.10419 10.6682 3.45312 11.6056 3.45312H12.3969C13.3343 3.45312 14.146 4.10419 14.3493 5.01926L14.5522 5.93248C15.2134 6.19131 15.8255 6.54779 16.371 6.98418L17.2652 6.70273C18.1593 6.4213 19.129 6.79866 19.5977 7.61047L19.9933 8.29577C20.462 9.10758 20.304 10.136 19.6132 10.7696L18.923 11.4027C18.9745 11.7454 19.0013 12.0961 19.0013 12.4531C19.0013 12.8101 18.9745 13.1609 18.923 13.5035L19.6132 14.1366C20.304 14.7702 20.462 15.7987 19.9933 16.6105L19.5977 17.2958C19.129 18.1076 18.1593 18.4849 17.2652 18.2035L16.371 17.9221C15.8255 18.3585 15.2134 18.7149 14.5522 18.9738L14.3493 19.887C14.146 20.8021 13.3343 21.4531 12.3969 21.4531H11.6056C10.6682 21.4531 9.85659 20.8021 9.65324 19.887L9.45031 18.9738C8.78918 18.7149 8.17701 18.3584 7.63156 17.9221L6.73736 18.2035C5.84321 18.4849 4.87356 18.1076 4.40486 17.2958L4.0092 16.6105C3.5405 15.7987 3.69853 14.7702 4.38933 14.1366L5.07955 13.5035C5.028 13.1609 5.00127 12.8101 5.00127 12.4531C5.00127 12.0961 5.028 11.7454 5.07956 11.4027L4.38935 10.7696C3.69854 10.136 3.54052 9.10758 4.00922 8.29577L4.40487 7.61048C4.87357 6.79867 5.84322 6.42131 6.73738 6.70274L7.63157 6.98418C8.17702 6.5478 8.78918 6.19132 9.45031 5.93248L9.65324 5.01926Z" stroke="#1D1D1F" stroke-width="1.5" stroke-linecap="round" stroke-linejoin="round"/>
<path d="M13.0013 12.4531C13.0013 13.0054 12.5535 13.4531 12.0013 13.4531C11.449 13.4531 11.0013 13.0054 11.0013 12.4531C11.0013 11.9008 11.449 11.4531 12.0013 11.4531C12.5535 11.4531 13.0013 11.9008 13.0013 12.4531Z" stroke="#1D1D1F" stroke-width="1.5" stroke-linecap="round" stroke-linejoin="round"/>
</svg>
