<svg width="24" height="25" viewBox="0 0 24 25" fill="none" xmlns="http://www.w3.org/2000/svg">
<path d="M18 19.1614C17.4832 16.8281 15.5357 15.4531 12.0001 15.4531C8.46459 15.4531 6.51676 16.8281 6 19.1614M12 21.4531C16.9706 21.4531 21 17.4237 21 12.4531C21 7.48256 16.9706 3.45312 12 3.45312C7.02944 3.45312 3 7.48256 3 12.4531C3 17.4237 7.02944 21.4531 12 21.4531ZM12 12.4531C13.3333 12.4531 14 11.7388 14 9.95312C14 8.16741 13.3333 7.45312 12 7.45312C10.6667 7.45312 10 8.16741 10 9.95312C10 11.7388 10.6667 12.4531 12 12.4531Z" stroke="#1D1D1F" stroke-width="1.5" stroke-linecap="round" stroke-linejoin="round"/>
</svg>
