<svg width="24" height="25" viewBox="0 0 24 25" fill="none" xmlns="http://www.w3.org/2000/svg">
<path d="M18.5051 19.4531H20C21.1046 19.4531 22.0669 18.5291 21.716 17.4817C21.1812 15.8856 19.8656 14.9204 17.5527 14.586M14.5001 11.3176C14.7911 11.4096 15.1244 11.4531 15.5 11.4531C17.1667 11.4531 18 10.596 18 8.45312C18 6.31027 17.1667 5.45312 15.5 5.45312C15.1244 5.45312 14.7911 5.49666 14.5001 5.58864M9.5 14.4531C13.1135 14.4531 15.0395 15.4627 15.716 17.4817C16.0669 18.5291 15.1046 19.4531 14 19.4531H5C3.89543 19.4531 2.93311 18.5291 3.28401 17.4817C3.96047 15.4627 5.88655 14.4531 9.5 14.4531ZM9.5 11.4531C11.1667 11.4531 12 10.596 12 8.45312C12 6.31027 11.1667 5.45312 9.5 5.45312C7.83333 5.45312 7 6.31027 7 8.45312C7 10.596 7.83333 11.4531 9.5 11.4531Z" stroke="#1D1D1F" stroke-width="1.5" stroke-linecap="round" stroke-linejoin="round"/>
</svg>
