<svg width="18" height="18" viewBox="0 0 18 18" fill="none" xmlns="http://www.w3.org/2000/svg">
<path fill-rule="evenodd" clip-rule="evenodd" d="M4.12087 8.45452H6.30004C6.42233 6.94734 6.92677 5.50058 7.75946 4.24899C5.81934 4.75416 4.34618 6.4163 4.12087 8.45452ZM8.99998 4.39134C8.08925 5.56468 7.53205 6.97462 7.39503 8.45452H10.6049C10.4679 6.97462 9.9107 5.56468 8.99998 4.39134ZM10.6049 9.54543C10.4679 11.0253 9.9107 12.4353 8.99998 13.6086C8.08925 12.4353 7.53205 11.0253 7.39503 9.54543H10.6049ZM6.30004 9.54543H4.12087C4.34618 11.5837 5.81934 13.2458 7.75946 13.751C6.92677 12.4994 6.42233 11.0526 6.30004 9.54543ZM10.2405 13.751C11.0732 12.4994 11.5776 11.0526 11.6999 9.54543H13.8791C13.6538 11.5837 12.1806 13.2458 10.2405 13.751ZM13.8791 8.45452H11.6999C11.5776 6.94734 11.0732 5.50058 10.2405 4.24899C12.1806 4.75416 13.6538 6.4163 13.8791 8.45452ZM3 8.99998C3 5.68628 5.68628 3 8.99998 3C12.3137 3 15 5.68628 15 8.99998C15 12.3137 12.3137 15 8.99998 15C5.68628 15 3 12.3137 3 8.99998Z" fill="#1D1D1F"/>
</svg>
