<svg width="83" height="21" viewBox="0 0 83 21" fill="none" xmlns="http://www.w3.org/2000/svg">
<path d="M1.49609 19.2501C4.43917 17.8629 7.39107 16.5348 10.6353 16.0417C14.5478 15.447 14.0548 19.2306 18 19.2501C21.7892 19.2689 25.3502 16.6096 29 15.0001C31.0666 14.0887 36.5781 16.7357 38 15.0001C39.5601 13.0958 42.3887 8.10857 44.5182 6.862C46.0646 5.9568 49.2518 9.88854 51 9.50006C53.0227 9.05057 55.4866 7.34138 57.5 6.862C59.7977 6.31492 63.1545 8.97233 65.5 9.50006C66.9506 9.82644 70.0142 6.95633 71.5 6.862C73.5229 6.73356 71.3397 2.63206 73.3293 2.26811C73.3293 2.26811 80.9814 2.52739 81.5 2.26807" stroke="#49AB3A" stroke-width="3" stroke-linecap="round"/>
</svg>
