<svg width="20" height="21" viewBox="0 0 20 21" fill="none" xmlns="http://www.w3.org/2000/svg">
<path d="M16 17.1614C15.4832 14.8281 13.5357 13.4531 10.0001 13.4531C6.46459 13.4531 4.51676 14.8281 4 17.1614M10 19.4531C14.9706 19.4531 19 15.4237 19 10.4531C19 5.48256 14.9706 1.45312 10 1.45312C5.02944 1.45312 1 5.48256 1 10.4531C1 15.4237 5.02944 19.4531 10 19.4531ZM10 10.4531C11.3333 10.4531 12 9.73884 12 7.95312C12 6.16741 11.3333 5.45312 10 5.45312C8.66667 5.45312 8 6.16741 8 7.95312C8 9.73884 8.66667 10.4531 10 10.4531Z" stroke="#1D1D1F" stroke-width="1.5" stroke-linecap="round" stroke-linejoin="round"/>
</svg>
