<svg width="21" height="17" viewBox="0 0 21 17" fill="none" xmlns="http://www.w3.org/2000/svg">
<path d="M16.5051 15.4531H18C19.1046 15.4531 20.0669 14.5291 19.716 13.4817C19.1812 11.8856 17.8656 10.9204 15.5527 10.586M12.5001 7.31761C12.7911 7.40959 13.1244 7.45312 13.5 7.45312C15.1667 7.45312 16 6.59598 16 4.45312C16 2.31027 15.1667 1.45312 13.5 1.45312C13.1244 1.45312 12.7911 1.49666 12.5001 1.58864M7.5 10.4531C11.1135 10.4531 13.0395 11.4627 13.716 13.4817C14.0669 14.5291 13.1046 15.4531 12 15.4531H3C1.89543 15.4531 0.933107 14.5291 1.28401 13.4817C1.96047 11.4627 3.88655 10.4531 7.5 10.4531ZM7.5 7.45312C9.16667 7.45312 10 6.59598 10 4.45312C10 2.31027 9.16667 1.45312 7.5 1.45312C5.83333 1.45312 5 2.31027 5 4.45312C5 6.59598 5.83333 7.45312 7.5 7.45312Z" stroke="#1D1D1F" stroke-width="1.5" stroke-linecap="round" stroke-linejoin="round"/>
</svg>
