<svg width="77" height="21" viewBox="0 0 77 21" fill="none" xmlns="http://www.w3.org/2000/svg">
<path d="M1.49609 19.25C4.43917 17.8629 7.39107 16.5347 10.6353 16.0416C14.5478 15.4469 18.6812 15.7304 22.6264 15.7499C26.4155 15.7687 30.3681 17.2137 34.0179 15.6041C36.0845 14.6927 37.6031 13.3535 39.025 11.6179C40.5851 9.71358 42.3887 8.10851 44.5182 6.86194C46.0646 5.95673 47.7367 5.35453 49.4848 4.96604C51.5075 4.51656 53.4832 3.93033 55.4966 3.45095C57.7943 2.90387 60.3701 2.4614 62.7155 2.98913C64.1661 3.31551 65.9047 3.72353 67.3905 3.6292C69.4134 3.50076 71.3397 2.63199 73.3293 2.26805C73.9354 2.15717 74.4797 2.00883 74.9983 1.74951" stroke="#49AB3A" stroke-width="3" stroke-linecap="round"/>
</svg>
