<svg width="22" height="16" viewBox="0 0 22 16" fill="none" xmlns="http://www.w3.org/2000/svg">
<path d="M17.0051 15H18.5C19.6046 15 20.5669 14.076 20.216 13.0286C19.6812 11.4325 18.3656 10.4672 16.0527 10.1329M13.0001 6.86448C13.2911 6.95646 13.6244 7 14 7C15.6667 7 16.5 6.14286 16.5 4C16.5 1.85714 15.6667 1 14 1C13.6244 1 13.2911 1.04354 13.0001 1.13552M8 10C11.6135 10 13.5395 11.0095 14.216 13.0286C14.5669 14.076 13.6046 15 12.5 15H3.5C2.39543 15 1.43311 14.076 1.78401 13.0286C2.46047 11.0095 4.38655 10 8 10ZM8 7C9.66667 7 10.5 6.14286 10.5 4C10.5 1.85714 9.66667 1 8 1C6.33333 1 5.5 1.85714 5.5 4C5.5 6.14286 6.33333 7 8 7Z" stroke="#92A1A8" stroke-width="1.5" stroke-linecap="round" stroke-linejoin="round"/>
</svg>
