<svg width="20" height="20" viewBox="0 0 20 20" fill="none" xmlns="http://www.w3.org/2000/svg">
<path d="M6.82939 8.39673C7.18356 8.16012 7.43973 8.00161 7.20913 7.31406C6.97852 6.62651 6.80209 6.02164 6.24523 6.85771C5.42766 8.08593 7.03385 10.4041 8.54001 11.7199C10.0462 13.0358 12.5827 14.3369 13.6901 13.3619C14.4438 12.6978 13.8207 12.6042 13.1084 12.468C12.3962 12.3318 12.2735 12.6069 12.0866 12.9896M19 10C19 14.9706 14.9706 19 10 19C8.36071 19 6.82378 18.5617 5.5 17.796L1 19L2.37355 14.7811C1.50329 13.3958 1 11.7567 1 10C1 5.02944 5.02944 1 10 1C14.9706 1 19 5.02944 19 10Z" stroke="#1D1D1F" stroke-width="1.5" stroke-linecap="round" stroke-linejoin="round"/>
</svg>
