<svg width="20" height="19" viewBox="0 0 20 19" fill="none" xmlns="http://www.w3.org/2000/svg">
<path d="M18.5001 8.99994C18.5001 4.58166 14.9184 0.999939 10.5001 0.999939M11.5 5.12593C12.9057 5.48768 14.0123 6.59432 14.3741 8M13.562 12.2507V12.2507C14.1052 11.5264 15.0886 11.2943 15.8983 11.6992L17.1337 12.3168C17.9404 12.7202 18.3773 13.6135 18.2004 14.4979L17.8216 16.3922C17.6346 17.3271 16.8109 18.0146 15.8636 17.9075C8.6005 17.0859 2.41414 10.8995 1.59253 3.63644C1.48537 2.68912 2.17292 1.86542 3.10777 1.67845L5.00207 1.29959C5.88646 1.12271 6.77982 1.55963 7.18316 2.36632L7.80084 3.60168C8.20571 4.41142 7.97356 5.39483 7.2493 5.93802V5.93802C6.77761 6.2918 6.49002 6.86004 6.71796 7.40381C7.50142 9.2728 10.2272 11.9986 12.0962 12.782C12.64 13.01 13.2082 12.7224 13.562 12.2507Z" stroke="#1D1D1F" stroke-width="1.5" stroke-linecap="round" stroke-linejoin="round"/>
</svg>
