<svg width="15" height="20" viewBox="0 0 15 20" fill="none" xmlns="http://www.w3.org/2000/svg">
<path fill-rule="evenodd" clip-rule="evenodd" d="M2.87584 2.85915C4.15549 1.61971 5.69686 1 7.5 1C9.30314 1 10.8372 1.61267 12.1023 2.83803C13.3675 4.06339 14 5.54929 14 7.29577C14 8.16902 13.7746 9.16901 13.3238 10.2958C12.873 11.4225 12.3277 12.4789 11.6879 13.4648C11.0481 14.4507 10.4156 15.3732 9.79027 16.2324C9.16499 17.0916 8.63423 17.7746 8.19799 18.2817L7.5 19C7.3255 18.8028 7.09284 18.5423 6.80201 18.2183C6.51118 17.8944 5.9877 17.2465 5.23154 16.2746C4.47539 15.3028 3.81376 14.3592 3.24664 13.4437C2.67953 12.5282 2.16331 11.493 1.69799 10.338C1.23266 9.18309 1 8.16902 1 7.29577C1 5.54929 1.62527 4.07043 2.87584 2.85915Z" stroke="#1D1D1F" stroke-width="1.5" stroke-linecap="round" stroke-linejoin="round"/>
<path d="M8.5 7.5C8.5 8.05228 8.05228 8.5 7.5 8.5C6.94772 8.5 6.5 8.05228 6.5 7.5C6.5 6.94772 6.94772 6.5 7.5 6.5C8.05228 6.5 8.5 6.94772 8.5 7.5Z" stroke="#1D1D1F" stroke-width="1.5" stroke-linecap="round" stroke-linejoin="round"/>
</svg>
